<?xml version="1.0" encoding="utf-8"?>
<!-- Generator: Adobe Illustrator 23.0.2, SVG Export Plug-In . SVG Version: 6.00 Build 0)  -->
<svg version="1.1" id="Camada_1" xmlns="http://www.w3.org/2000/svg" xmlns:xlink="http://www.w3.org/1999/xlink" x="0px" y="0px"
	 viewBox="0 0 214.9 159.6" style="enable-background:new 0 0 214.9 159.6;" xml:space="preserve">
<style type="text/css">
	.st0{fill:#FFFFFF;}
</style>
<g>
	<g>
		<polygon class="st0" points="13.8,120.1 26,120.1 37.8,105.2 32.1,97.8 		"/>
	</g>
	<g>
		<polygon class="st0" points="34.1,95.5 54.2,120.1 65.9,120.1 39.9,88.1 		"/>
	</g>
	<g>
		<polygon class="st0" points="65.3,88.8 65.3,96.2 81.3,96.2 81.3,100.6 91.6,108.2 91.6,96.2 107.5,96.2 107.5,88.8 		"/>
	</g>
	<g>
		<polygon class="st0" points="81.2,103.7 81.2,120.1 91.6,120.1 91.6,111.9 		"/>
	</g>
	<g>
		<polygon class="st0" points="116,101.9 116,120.1 126.4,120.1 126.4,110.1 		"/>
	</g>
	<g>
		<polygon class="st0" points="116,88.8 116,98.2 136.9,114 147.4,106.5 147.4,120.1 157.8,120.1 157.8,88.8 156.1,88.8 
			136.9,103.2 118.2,88.8 		"/>
	</g>
	<g>
		<polygon class="st0" points="166.1,88.8 166.1,98.5 178.8,108.3 201.1,108.3 201.1,101.1 183.2,101.1 178.3,96.2 201.1,96.2 
			201.1,88.8 		"/>
	</g>
	<g>
		<polygon class="st0" points="166.1,102.6 178.3,112.1 201.1,112.1 201.1,120.1 166.1,120.1 		"/>
	</g>
	<path class="st0" d="M145.4,13.6H70.9c-3.8,0-6.9,3.1-6.9,6.9v34c0,3.8,3.1,6.9,6.9,6.9h30.3v12.8h13.4V61.4h30.8
		c3.8,0,6.9-3.1,6.9-6.9v-34C152.3,16.7,149.2,13.6,145.4,13.6z M145.4,57.4H70.9c-1.6,0-2.8-1.3-2.8-2.8v-2.8h29.3
		c0.6,1.8,2.2,3.1,4.2,3.1c2.4,0,4.4-2,4.4-4.4s-2-4.4-4.4-4.4c-2,0-3.6,1.3-4.2,3.1H68v-9.5h29.3c0.6,1.8,2.2,3.1,4.2,3.1
		c2.4,0,4.4-2,4.4-4.4s-2-4.4-4.4-4.4c-2,0-3.6,1.3-4.2,3.1H68V20.5c0-1.6,1.3-2.8,2.8-2.8h74.5c1.6,0,2.8,1.3,2.8,2.8v3.1h-29
		c-0.6-1.8-2.2-3.1-4.2-3.1c-2.4,0-4.4,2-4.4,4.4s2,4.4,4.4,4.4c2,0,3.6-1.3,4.2-3.1h29v9.5h-29c-0.6-1.8-2.2-3.1-4.2-3.1
		c-2.4,0-4.4,2-4.4,4.4s2,4.4,4.4,4.4c2,0,3.6-1.3,4.2-3.1h29v16.1C148.2,56.1,146.9,57.4,145.4,57.4z M99.5,50.4c0-1.1,0.9-2,2-2
		c1.1,0,2,0.9,2,2c0,1.1-0.9,2-2,2C100.4,52.4,99.5,51.5,99.5,50.4z M99.5,38.2c0-1.1,0.9-2,2-2c1.1,0,2,0.9,2,2s-0.9,2-2,2
		C100.4,40.2,99.5,39.3,99.5,38.2z M117,24.9c0,1.1-0.9,2-2,2c-1.1,0-2-0.9-2-2c0-1.1,0.9-2,2-2C116.1,22.9,117,23.8,117,24.9z
		 M117,37.1c0,1.1-0.9,2-2,2c-1.1,0-2-0.9-2-2c0-1.1,0.9-2,2-2C116.1,35.1,117,36,117,37.1z"/>
	<path class="st0" d="M138.4,74.1c0-6.2-18.2-6.8-18.2-6.8v2.1c0,0,5.5,0.3,5.5,3.2c0,2.8-7.6,5.3-17.9,5.3
		c-10.3,0-17.9-2.4-17.9-5.3c0-2.9,5.5-3.2,5.5-3.2v-2.1c0,0-18.2,0.6-18.2,6.8c0,4.1,15.3,8.2,30.6,8.2S138.4,78.2,138.4,74.1z"/>
	<g>
		<path class="st0" d="M24.4,130c-0.2-0.2-0.3-0.4-0.3-0.7c0-0.3,0.1-0.5,0.3-0.7c0.2-0.2,0.4-0.3,0.7-0.3c0.3,0,0.5,0.1,0.7,0.3
			c0.2,0.2,0.3,0.4,0.3,0.7c0,0.3-0.1,0.5-0.3,0.7c-0.2,0.2-0.4,0.3-0.7,0.3C24.8,130.3,24.5,130.2,24.4,130z M24.5,133.4h1.2v12.6
			h-1.2V133.4z"/>
		<path class="st0" d="M44,134.6c0.9,0.9,1.4,2.2,1.4,4v7.3h-1.2v-7.3c0-1.4-0.4-2.5-1.1-3.2c-0.7-0.7-1.7-1.1-3-1.1
			c-1.5,0-2.6,0.4-3.5,1.3c-0.9,0.9-1.3,2.1-1.3,3.6v6.7h-1.2v-12.6h1.2v2.7c0.4-0.9,1.1-1.6,1.9-2.1c0.9-0.5,1.9-0.7,3-0.7
			C41.8,133.3,43.1,133.7,44,134.6z"/>
		<path class="st0" d="M55.1,131.5v1.8h4v1h-4v11.5h-1.2v-11.5h-2.3v-1h2.3v-1.9c0-1.1,0.3-1.9,0.9-2.5c0.6-0.6,1.5-0.9,2.6-0.9
			c0.5,0,0.9,0.1,1.4,0.2c0.4,0.1,0.8,0.3,1.1,0.6l-0.5,0.9c-0.5-0.5-1.2-0.7-2-0.7C55.9,129,55.1,129.8,55.1,131.5z"/>
		<path class="st0" d="M66.5,145.2c-1-0.5-1.7-1.3-2.3-2.3c-0.5-1-0.8-2.1-0.8-3.3c0-1.2,0.3-2.3,0.8-3.3c0.5-1,1.3-1.7,2.3-2.3
			c1-0.5,2-0.8,3.2-0.8c1.2,0,2.3,0.3,3.2,0.8c1,0.5,1.7,1.3,2.3,2.3c0.5,1,0.8,2.1,0.8,3.3c0,1.2-0.3,2.3-0.8,3.3
			c-0.5,1-1.3,1.7-2.3,2.3c-1,0.5-2,0.8-3.2,0.8C68.5,146,67.4,145.8,66.5,145.2z M72.3,144.3c0.8-0.4,1.4-1.1,1.8-1.9
			c0.4-0.8,0.7-1.7,0.7-2.7c0-1-0.2-1.9-0.7-2.7c-0.4-0.8-1-1.4-1.8-1.9c-0.8-0.4-1.6-0.7-2.6-0.7c-1,0-1.8,0.2-2.6,0.7
			c-0.8,0.4-1.4,1.1-1.8,1.9c-0.4,0.8-0.7,1.7-0.7,2.7c0,1,0.2,1.9,0.7,2.7c0.4,0.8,1,1.4,1.8,1.9c0.8,0.4,1.6,0.7,2.6,0.7
			C70.6,144.9,71.5,144.7,72.3,144.3z"/>
		<path class="st0" d="M86,134c0.8-0.5,1.8-0.7,3-0.7v1.2l-0.3,0c-1.4,0-2.5,0.4-3.3,1.3c-0.8,0.9-1.2,2.1-1.2,3.6v6.6h-1.2v-12.6
			h1.2v2.7C84.6,135.2,85.2,134.5,86,134z"/>
		<path class="st0" d="M115,134.6c0.9,0.9,1.3,2.2,1.3,4v7.3h-1.2v-7.3c0-1.4-0.3-2.5-1-3.2c-0.7-0.7-1.7-1.1-2.9-1.1
			c-1.4,0-2.5,0.4-3.4,1.3c-0.8,0.9-1.2,2.1-1.2,3.6v6.7h-1.2v-7.3c0-1.4-0.3-2.5-1-3.2c-0.7-0.7-1.7-1.1-2.9-1.1
			c-1.4,0-2.5,0.4-3.4,1.3c-0.8,0.9-1.2,2.1-1.2,3.6v6.7h-1.2v-12.6h1.2v2.7c0.4-0.9,1-1.6,1.9-2.1c0.8-0.5,1.8-0.7,3-0.7
			c1.1,0,2.1,0.3,2.9,0.8c0.8,0.5,1.4,1.3,1.7,2.3c0.4-0.9,1.1-1.7,2-2.2c0.9-0.5,1.9-0.8,3.1-0.8
			C112.9,133.3,114.2,133.7,115,134.6z"/>
		<path class="st0" d="M132.5,134.5c0.8,0.8,1.3,2,1.3,3.5v8h-1.2v-2.2c-0.4,0.7-1,1.3-1.8,1.7c-0.8,0.4-1.7,0.6-2.8,0.6
			c-1.4,0-2.5-0.3-3.3-1c-0.8-0.7-1.2-1.5-1.2-2.6c0-1,0.4-1.9,1.1-2.5c0.7-0.7,1.9-1,3.6-1h4.3v-1c0-1.2-0.3-2.1-1-2.7
			c-0.6-0.6-1.6-0.9-2.8-0.9c-0.8,0-1.6,0.1-2.4,0.4c-0.8,0.3-1.4,0.7-1.9,1.2l-0.6-0.9c0.6-0.6,1.4-1,2.3-1.3s1.8-0.5,2.8-0.5
			C130.5,133.3,131.7,133.7,132.5,134.5z M130.9,144.3c0.7-0.5,1.3-1.2,1.7-2.1v-2.4h-4.3c-1.2,0-2.1,0.2-2.7,0.7
			c-0.6,0.4-0.8,1.1-0.8,1.9c0,0.8,0.3,1.5,0.9,1.9c0.6,0.5,1.5,0.7,2.6,0.7C129.3,145,130.2,144.8,130.9,144.3z M130.9,128.5h1.7
			l-3.8,2.8h-1.3L130.9,128.5z"/>
		<path class="st0" d="M148.4,145.1c-0.3,0.3-0.7,0.5-1.1,0.7c-0.5,0.2-0.9,0.2-1.4,0.2c-1.1,0-1.9-0.3-2.5-0.9
			c-0.6-0.6-0.9-1.4-0.9-2.5v-8.2h-2.3v-1h2.3v-2.7h1.2v2.7h4v1h-4v8.1c0,0.8,0.2,1.4,0.6,1.9c0.4,0.4,1,0.6,1.7,0.6
			c0.8,0,1.4-0.2,2-0.7L148.4,145.1z"/>
		<path class="st0" d="M155,130c-0.2-0.2-0.3-0.4-0.3-0.7c0-0.3,0.1-0.5,0.3-0.7c0.2-0.2,0.4-0.3,0.7-0.3c0.3,0,0.5,0.1,0.7,0.3
			c0.2,0.2,0.3,0.4,0.3,0.7c0,0.3-0.1,0.5-0.3,0.7c-0.2,0.2-0.4,0.3-0.7,0.3C155.4,130.3,155.2,130.2,155,130z M155.1,133.4h1.2
			v12.6h-1.2V133.4z"/>
		<path class="st0" d="M166.5,145.2c-1-0.5-1.7-1.3-2.3-2.3c-0.5-1-0.8-2.1-0.8-3.3c0-1.2,0.3-2.3,0.8-3.3c0.5-1,1.3-1.7,2.3-2.3
			c1-0.5,2.1-0.8,3.3-0.8c1,0,1.9,0.2,2.8,0.6c0.8,0.4,1.5,1,2,1.7l-0.9,0.7c-0.4-0.6-1-1.1-1.7-1.4c-0.7-0.3-1.4-0.5-2.2-0.5
			c-1,0-1.9,0.2-2.6,0.7c-0.8,0.4-1.4,1.1-1.8,1.9c-0.4,0.8-0.7,1.7-0.7,2.8c0,1,0.2,2,0.7,2.8c0.4,0.8,1.1,1.4,1.8,1.9
			c0.8,0.4,1.7,0.7,2.6,0.7c0.8,0,1.5-0.2,2.2-0.5c0.7-0.3,1.2-0.8,1.7-1.4l0.9,0.7c-0.5,0.8-1.2,1.3-2,1.7
			c-0.8,0.4-1.7,0.6-2.8,0.6C168.5,146,167.4,145.8,166.5,145.2z"/>
		<path class="st0" d="M189.3,134.5c0.8,0.8,1.3,2,1.3,3.5v8h-1.2v-2.2c-0.4,0.7-1,1.3-1.8,1.7s-1.7,0.6-2.8,0.6
			c-1.4,0-2.5-0.3-3.3-1c-0.8-0.7-1.2-1.5-1.2-2.6c0-1,0.4-1.9,1.1-2.5c0.7-0.7,1.9-1,3.6-1h4.3v-1c0-1.2-0.3-2.1-1-2.7
			c-0.6-0.6-1.6-0.9-2.8-0.9c-0.8,0-1.6,0.1-2.4,0.4c-0.8,0.3-1.4,0.7-1.9,1.2l-0.6-0.9c0.6-0.6,1.4-1,2.3-1.3s1.8-0.5,2.8-0.5
			C187.3,133.3,188.5,133.7,189.3,134.5z M187.7,144.3c0.7-0.5,1.3-1.2,1.7-2.1v-2.4h-4.3c-1.2,0-2.1,0.2-2.7,0.7
			c-0.6,0.4-0.8,1.1-0.8,1.9c0,0.8,0.3,1.5,0.9,1.9c0.6,0.5,1.5,0.7,2.6,0.7C186.1,145,187,144.8,187.7,144.3z"/>
	</g>
</g>
</svg>
