<svg xmlns="http://www.w3.org/2000/svg" width="128" height="47" fill="none" viewBox="0 0 128 47">
  <path fill="#fff" d="M43.106 38.438v-4.61h.815v4.61h-.815Zm4.629 0-2.026-3.244v3.243h-.82v-4.61h.82l2.03 3.248v-3.248h.811v4.61h-.815Zm2.573-3.953v1.346h1.848v.658h-1.848v1.944h-.819v-4.606h2.936v.663h-2.117v-.005Zm6.187 2.961a1.827 1.827 0 0 1-.67.782 1.82 1.82 0 0 1-1.003.273 1.83 1.83 0 0 1-.998-.273 1.846 1.846 0 0 1-.678-.782c-.163-.342-.244-.739-.244-1.196v-.23c0-.458.081-.86.243-1.197.163-.338.389-.603.679-.782.29-.184.623-.274.998-.274.38 0 .713.09 1.003.274.29.184.516.444.674.782.162.337.24.739.24 1.2v.231c-.005.453-.082.855-.244 1.192Zm-.866-2.602c-.192-.27-.461-.401-.81-.401a.96.96 0 0 0-.586.179c-.162.12-.29.299-.38.534a2.427 2.427 0 0 0-.132.855v.239c0 .337.043.624.133.859.09.235.213.414.38.538.166.12.362.184.584.184.35 0 .619-.137.806-.406.188-.27.282-.662.282-1.17v-.24c.009-.513-.09-.902-.277-1.17Zm5.376 3.551v.042h-.88l-.912-1.764h-.875v1.764h-.82v-4.61h1.63c.534 0 .944.12 1.234.36.29.238.435.58.435 1.033 0 .303-.072.56-.218.773a1.367 1.367 0 0 1-.618.488l1.024 1.914Zm-2.671-2.384h.815c.273 0 .482-.069.627-.206a.718.718 0 0 0 .218-.546c0-.244-.069-.432-.21-.569-.14-.136-.354-.2-.64-.2h-.81v1.52Zm7.979 2.427h-.815V36.95l.08-2.047-1.34 3.538h-.584l-1.34-3.534.082 2.047v1.487h-.82v-4.615h1.063l1.31 3.508 1.305-3.508h1.063v4.61h-.004Zm3.511-1.06h-1.766l-.367 1.055h-.858l1.737-4.61h.733l1.741 4.61h-.857l-.363-1.055Zm-.23-.662-.653-1.889-.653 1.889h1.306Zm.477-4.124-.874.962h-.632l.619-.962h.887Zm4.83 1.893h-1.433v3.948h-.815v-3.948h-1.417v-.662h3.665v.662Zm.649 3.953v-4.61h.815v4.61h-.815Zm5.056-.693a1.48 1.48 0 0 1-.61.556c-.26.132-.576.2-.943.2-.376 0-.704-.09-.986-.269a1.749 1.749 0 0 1-.648-.76c-.154-.33-.227-.714-.227-1.158v-.363c0-.44.077-.825.23-1.158a1.76 1.76 0 0 1 .662-.765c.286-.18.619-.27.999-.27.358 0 .67.07.921.202.256.132.453.32.598.56.14.239.23.516.26.832h-.815c-.034-.307-.128-.538-.273-.696-.145-.154-.376-.23-.691-.23-.355 0-.619.132-.798.392-.18.261-.269.637-.269 1.124v.372c0 .483.085.855.252 1.12.166.264.43.397.785.397.217 0 .397-.035.537-.103a.704.704 0 0 0 .312-.299c.072-.132.12-.299.145-.5h.815a1.82 1.82 0 0 1-.256.816Zm3.545-.367h-1.766l-.367 1.055h-.858l1.737-4.61h.734l1.74 4.61h-.857l-.362-1.055Zm-.23-.662-.653-1.889-.653 1.889h1.306ZM80.5 6.836c-3.768 0-5.944 1.043-7.199 2.32-1.254-1.277-3.43-2.32-7.198-2.32-8.243 0-8.883 4.99-8.883 6.525v12.1a1.802 1.802 0 1 0 3.601 0v-12.1c0-2.406 2.872-2.914 5.278-2.914 2.406 0 5.278.504 5.278 2.914v12.1c0 .996.806 1.803 1.8 1.803.039 0 .077-.004.116-.004.038.004.076.004.115.004.994 0 1.8-.807 1.8-1.803v-12.1c0-2.406 2.872-2.914 5.278-2.914 2.407 0 5.278.504 5.278 2.914v12.1a1.802 1.802 0 1 0 3.601 0v-12.1c.022-1.534-.618-6.525-8.866-6.525Zm-55.758.235c-7.842 0-9.01 3.936-9.01 6.281v12.1c0 .996.806 1.804 1.8 1.804s1.8-.808 1.8-1.803v-5.401h7.023a1.802 1.802 0 0 0 0-3.606h-7.018v-3.094c0-.73 0-2.67 5.405-2.67 5.406 0 5.406 1.94 5.406 2.67v12.1c0 .996.807 1.804 1.8 1.804.995 0 1.801-.808 1.801-1.803v-12.1c.005-2.346-1.165-6.282-9.007-6.282Zm86.115 16.514H98.594c-.7-.188-2.986-2.089-2.96-6.43.025-4.2 2.303-6.332 3.007-6.606h12.216c.994 0 1.8-.807 1.8-1.803 0-.995-.806-1.803-1.8-1.803H98.53c-2.564 0-6.464 4.064-6.502 10.195-.026 4.546 1.873 7.144 3.012 8.289 1.118 1.128 2.394 1.773 3.494 1.773h12.327c.994 0 1.8-.807 1.8-1.803a1.81 1.81 0 0 0-1.804-1.812ZM54.618 7.31H36.8a1.563 1.563 0 0 0 0 3.128h7.104v15.015c0 .995.806 1.803 1.8 1.803.995 0 1.801-.808 1.801-1.803V10.438h7.104c.862 0 1.562-.7 1.562-1.564 0-.863-.691-1.563-1.553-1.563Z"/>
  <path fill="#fff" d="M110.857 15.34h-11.06a1.802 1.802 0 0 0 0 3.605h11.06c.994 0 1.8-.807 1.8-1.803 0-.995-.806-1.803-1.8-1.803Z"/>
</svg>
